<?xml version="1.0" encoding="utf-8"?>
<!-- Generator: Adobe Illustrator 24.1.1, SVG Export Plug-In . SVG Version: 6.00 Build 0)  -->
<svg version="1.1" xmlns="http://www.w3.org/2000/svg" xmlns:xlink="http://www.w3.org/1999/xlink" x="0px" y="0px"
	 viewBox="0 0 860 768" style="enable-background:new 0 0 860 768;" xml:space="preserve">
<style type="text/css">
	.st0{fill-rule:evenodd;clip-rule:evenodd;fill:#D1E8B2;}
	.st1{fill:#FFFFFF;stroke:#FFFFFF;stroke-width:2;stroke-miterlimit:10;}
	.st2{fill:#FFFFFF;}
	.st3{fill-rule:evenodd;clip-rule:evenodd;fill:#9FC07E;}
	.st4{fill:none;stroke:#000000;stroke-width:3;stroke-miterlimit:10;}
	.st5{fill-rule:evenodd;clip-rule:evenodd;fill:#FFFFFF;}
	.st6{fill:#C69C6D;}
	.st7{fill-rule:evenodd;clip-rule:evenodd;fill:#F2EBE5;}
	.st8{fill:none;stroke:#534741;stroke-width:2;stroke-miterlimit:10;}
	.st9{fill-rule:evenodd;clip-rule:evenodd;fill:#30261F;stroke:#534741;stroke-width:2;stroke-miterlimit:10;}
	.st10{fill:#C69C6D;stroke:#736357;stroke-width:2;stroke-miterlimit:10;}
	.st11{fill:#F2EBE5;stroke:#736357;stroke-width:2;stroke-miterlimit:10;}
	.st12{fill:#30261F;stroke:#736357;stroke-width:2;stroke-miterlimit:10;}
	.st13{fill:none;}
	.st14{font-family:'FairwaterScript-Regular';}
	.st15{font-size:23px;}
	.st16{fill-rule:evenodd;clip-rule:evenodd;stroke:#534741;stroke-width:2;stroke-miterlimit:10;}
	.st17{stroke:#736357;stroke-width:2;stroke-miterlimit:10;}
	.st18{font-family:'LeagueGothic-Regular';}
	.st19{font-size:21px;}
</style>
<g id="Layer_1">
	<rect class="st0" width="860" height="768"/>
</g>
<g id="Layer_2">
	<g>
		<path class="st1" d="M287.67,136.7c6.7-8.69,17.86-20.09,27.37-20.09c5.37,0,9.43,3.3,9.43,10.42c0,3.07-0.5,6.15-1.24,8.62
			c6.86-8.39,17.78-19.04,27.2-19.04c5.54,0,9.59,3,9.59,9.29c0,13.19-21.17,29.98-21.17,42.05c0,4.12,2.48,6.45,5.79,6.45
			c5.21,0,11.66-6.6,16.87-13.94c0.41-0.6,0.91-0.82,1.4-0.82c0.91,0,1.65,0.67,1.65,1.5c0,0.3-0.08,0.67-0.33,1.05
			c-5.62,7.95-12.48,15.37-20.26,15.37c-5.62,0-9.92-3.45-9.92-9.67c0-13.12,21.17-30.13,21.17-42.05c0-3.9-1.9-5.85-5.21-5.85
			c-7.03,0-17.36,9.74-24.89,19.26c-4.05,5.17-6.37,8.99-9.67,15.14c-3.47,6.37-8.1,15.74-10.33,20.39
			c-0.83,1.65-1.9,2.62-2.98,2.62c-1.49,0-2.4-0.9-2.4-2.17c0-2.62,2.56-7.42,7.44-14.54c1.24-2.1,5.21-9.52,7.77-15.66
			c3.56-8.39,4.8-14.24,4.8-18.06c0-4.72-1.9-6.97-5.13-6.97c-6.94,0-17.28,9.74-24.8,19.26c-4.05,5.17-6.37,8.99-9.67,15.14
			c-3.56,6.52-8.27,16.04-10.5,20.76c-0.83,1.65-1.9,2.62-2.98,2.62c-1.49,0-2.4-0.9-2.4-2.17c0-2.62,2.56-7.42,7.44-14.54
			c1.24-2.17,5.29-9.74,7.94-16.04c3.31-7.79,4.79-13.04,4.79-16.64c0-4.05-1.82-6.67-4.96-7.79
			c-1.98,11.24-13.97,25.48-24.56,25.48c-5.54,0-8.93-3-8.93-8.17c0-10.57,15.71-20.99,29.52-21.14c-0.08-2.4-0.66-3.45-1.08-4.12
			c-0.33-0.45-0.5-0.9-0.5-1.2c0-0.9,0.91-1.65,1.98-1.65c1.9,0,3.8,2.55,3.89,7.42c5.7,1.35,9.34,5.62,9.34,11.24
			C289.16,131.45,288.5,134.38,287.67,136.7z M275.27,119.99c-11.74,0.15-24.89,9.07-24.89,18.21c0,2.92,1.74,4.65,4.63,4.65
			C263.69,142.85,273.61,129.73,275.27,119.99z"/>
		<path class="st1" d="M403.24,160.46c0,0,0.58-0.82,1.32-0.82c1.07,0.07,1.74,0.67,1.74,1.57c0,0.3-0.17,0.67-0.33,0.97
			c-4.88,6.75-9.84,10.34-16.21,10.34c-2.23,0-4.38-0.52-5.95-1.5c-3.47,3.15-7.77,5.17-12.07,5.17c-6.53,0-11.24-3.67-11.24-10.72
			c0-11.17,11.24-20.99,20.92-20.99c6.61,0,10.67,3.6,10.67,9.82c0,4.87-2.23,10.04-5.7,14.09c0.91,0.75,2.32,1.2,3.97,1.2
			C394.56,169.6,398.77,166.61,403.24,160.46z M381.33,147.57c-6.78,0-16.12,8.99-16.12,18.14c0,4.87,3.06,7.35,6.7,7.35
			c3.39,0,6.78-1.8,9.51-4.57c-0.08-0.15-0.08-0.3-0.08-0.45c0-1.2,0.99-2.1,2.23-2.17c2.48-3.45,4.05-7.72,4.05-11.69
			C387.61,149.74,385.13,147.57,381.33,147.57z"/>
		<path class="st1" d="M421.01,173.2c4.38,0,9.84-6.15,14.55-12.74c0.41-0.6,0.91-0.82,1.41-0.82c0.91,0,1.65,0.67,1.65,1.5
			c0,0.3-0.08,0.67-0.33,1.05c-5.13,7.2-11.16,14.02-17.94,14.02c-4.46,0-7.36-2.77-7.36-7.5c0-6,7.19-12.67,7.19-16.79
			c0-2.02-3.23-2.85-5.21-3.97c-2.56,4.57-5.54,9.22-9.01,14.17c-0.41,0.6-0.83,1.05-1.57,1.05c-0.91,0-1.65-0.6-1.65-1.35
			c0-0.53,0.17-0.82,0.5-1.35c3.14-4.35,5.62-8.47,8.6-14.24v-0.97c0-5.02,2.81-8.39,4.88-8.39c1.74,0,2.73,0.9,2.73,2.17
			c0,1.27-0.83,3.45-2.56,6.22c2.73,1.95,7.85,3,7.85,6.52c0,5.02-7.36,11.24-7.36,17.46C417.37,171.78,418.78,173.2,421.01,173.2z"
			/>
		<path class="st1" d="M476.07,160.46c0.41-0.6,0.91-0.82,1.4-0.82c0.91,0,1.65,0.67,1.65,1.5c0,0.3-0.08,0.67-0.33,1.05
			c-5.12,7.2-11.16,14.02-17.94,14.02c-4.3,0-7.11-2.55-7.11-6.9c0-6.67,7.77-13.87,7.77-19.11c0-1.65-1.07-2.62-2.89-2.62
			c-4.38,0-11.57,4.87-15.63,9.29c-3.39,3.75-6.45,11.09-8.52,17.09c-0.33,0.97-0.83,2.25-2.48,2.25c-0.83,0-1.65-0.45-1.65-1.5
			c0-0.67,0.08-1.05,0.33-1.8c3.22-8.99,7.61-18.89,11.08-26.46c0.58-1.27,1.49-1.95,2.65-1.95c1.24,0,1.98,0.67,1.98,1.65
			c0,0.9-0.74,2.4-1.98,4.35l-1.16,2.55c4.63-4.57,10.67-8.54,15.46-8.54c4.05,0,7.03,2.4,7.03,6c0,6.37-7.61,12.74-7.61,19.34
			c0,2.17,1.32,3.37,3.39,3.37C465.9,173.2,471.36,167.05,476.07,160.46z"/>
		<path class="st1" d="M497.15,160.46c0.41-0.6,0.91-0.82,1.4-0.82c0.91,0,1.65,0.67,1.65,1.5c0,0.3-0.08,0.67-0.33,1.05
			c-5.13,7.2-11.16,14.02-17.94,14.02c-4.63,0-7.69-2.62-7.69-7.87c0-5.1,3.22-12.29,6.2-17.46c2.56-4.5,3.89-6.37,5.13-6.37
			c1.41,0,2.23,0.75,2.23,1.8c0,1.27-1.24,3.52-3.55,6.9c-2.73,4.95-5.46,10.79-5.46,15.29c0,3.37,1.57,4.72,3.8,4.72
			C486.98,173.2,492.43,167.05,497.15,160.46z M492.02,132.95c1.65,0,2.98,0.97,2.98,2.62c0,1.35-1.4,3.52-3.72,3.52
			c-1.65,0-3.06-0.9-3.06-2.55C488.22,134.98,489.95,132.95,492.02,132.95z"/>
		<path class="st1" d="M537.65,160.46c0.41-0.6,0.91-0.82,1.4-0.82c0.91,0,1.65,0.67,1.65,1.5c0,0.3-0.08,0.67-0.33,1.05
			c-5.13,7.2-11.16,14.02-17.94,14.02c-4.3,0-7.11-2.55-7.11-6.9c0-6.67,7.77-13.87,7.77-19.11c0-1.65-1.08-2.62-2.89-2.62
			c-4.38,0-11.58,4.87-15.63,9.29c-3.39,3.75-6.45,11.09-8.52,17.09c-0.33,0.97-0.83,2.25-2.48,2.25c-0.83,0-1.65-0.45-1.65-1.5
			c0-0.67,0.08-1.05,0.33-1.8c3.23-8.99,7.61-18.89,11.08-26.46c0.58-1.27,1.49-1.95,2.65-1.95c1.24,0,1.98,0.67,1.98,1.65
			c0,0.9-0.74,2.4-1.98,4.35l-1.16,2.55c4.63-4.57,10.67-8.54,15.46-8.54c4.05,0,7.03,2.4,7.03,6c0,6.37-7.61,12.74-7.61,19.34
			c0,2.17,1.32,3.37,3.39,3.37C527.48,173.2,532.94,167.05,537.65,160.46z"/>
		<path class="st1" d="M554.43,180.1c2.4-5.55,3.64-9.52,4.8-12.52c-3.97,4.87-8.52,8.62-13.48,8.62c-5.54,0-9.51-3.3-9.51-9.29
			c0-11.09,12.65-22.41,22.82-22.41c3.72,0,6.61,1.2,8.18,3.67c0.74-2.25,2.23-3.67,3.56-3.67c1.4,0,2.23,0.75,2.23,1.8
			c0,1.27-1.41,3.52-3.72,6.9c-2.07,4.12-4.46,11.17-5.79,14.99l-3.39,8.92c-4.13,10.87-10.83,19.19-19.1,19.19
			c-4.88,0-8.35-2.32-9.18-4.65c-0.25-0.67-0.25-0.97-0.25-1.35c0-0.97,0.58-1.8,1.9-1.8c0.99,0,1.49,0.6,1.9,1.27
			c1.32,2.1,2.48,3.52,5.62,3.52C545.34,193.29,550.96,188.12,554.43,180.1z M565.51,151.69c-0.41-2.55-2.65-4.12-6.53-4.12
			c-7.69,0-18.02,10.42-18.02,19.64c0,3.82,2.31,5.85,5.13,5.85c4.22,0,8.6-3.9,12.48-8.99
			C561.54,160.01,563.44,156.41,565.51,151.69z"/>
		<path class="st1" d="M333.71,222.73c6.61-7.87,16.37-16.11,26.79-16.11c8.27,0,13.64,4.35,13.64,11.99
			c0,7.87-6.37,15.96-14.8,20.91c3.8,2.92,6.03,7.2,6.03,12.07c0,2.77-0.91,5.47-2.32,8.02c6.86-1.05,13.06-3.82,16.87-9.22
			c0.41-0.6,0.91-0.82,1.41-0.82c0.91,0,1.65,0.67,1.65,1.5c0,0.3-0.08,0.67-0.33,1.05c-4.55,6.45-12.15,9.97-21.83,10.79
			c-4.13,4.72-10.42,8.09-16.87,8.09c-10.09,0-17.69-5.47-17.69-13.34c0-3.15,1.24-4.5,3.14-4.5c1.49,0,2.98,0.9,4.38,1.72
			c5.29,3.07,13.56,5.1,23.31,5.1h0.83c1.74-2.55,2.81-5.47,2.81-8.47c0-4.27-1.74-7.79-4.79-10.19c-4.22,1.95-8.85,3.07-13.23,3.07
			c-4.88,0-7.28-2.1-7.28-4.5c0-2.85,4.05-4.72,9.59-4.72c4.13,0,7.85,0.82,10.91,2.32c7.61-4.5,13.23-12.07,13.23-18.96
			c0-5.7-3.39-8.54-8.6-8.54c-12.65,0-24.72,13.72-29.68,22.56c-4.38,8.17-12.4,24.51-16.21,32.53c-0.83,1.65-1.9,2.62-2.98,2.62
			c-1.49,0-2.4-0.9-2.4-2.17c0-2.62,2.56-7.42,7.44-14.54c1.49-2.55,5.95-11.54,9.18-18.96c2.81-6.45,3.56-10.19,3.56-13.72
			c0-4.12-1.82-6.67-4.96-7.79c-1.98,11.24-13.97,25.48-24.56,25.48c-5.54,0-8.93-3-8.93-8.17c0-10.19,15.96-20.99,29.52-21.14
			c-0.08-2.4-0.66-3.45-1.07-4.12c-0.33-0.45-0.5-0.9-0.5-1.2c0-0.9,0.91-1.65,1.98-1.65c1.9,0,3.8,2.55,3.89,7.42
			c5.54,1.35,9.18,5.55,9.18,11.24C334.04,219.66,333.88,221.16,333.71,222.73z M320.32,209.92c-11.49,0.15-24.89,9.44-24.89,18.21
			c0,2.92,1.74,4.65,4.63,4.65C308.74,232.78,318.67,219.66,320.32,209.92z M355.38,263.06c-10.09-0.15-19.18-2.7-24.56-6.07
			c-0.17,0.15-0.25,0.45-0.25,0.75c0,5.92,5.79,10.19,13.23,10.19C348.1,267.93,352.23,265.98,355.38,263.06z M352.23,239.3
			c-2.07-0.75-4.38-1.2-6.95-1.2c-4.13,0-5.87,0.67-5.87,1.8c0,0.82,0.91,1.42,3.06,1.42C345.78,241.32,349.09,240.57,352.23,239.3z
			"/>
		<path class="st1" d="M397.7,263.13c4.38,0,9.84-6.15,14.55-12.74c0.41-0.6,0.91-0.82,1.41-0.82c0.91,0,1.65,0.67,1.65,1.5
			c0,0.3-0.08,0.67-0.33,1.05c-5.13,7.2-11.16,14.02-17.94,14.02c-4.46,0-7.36-2.77-7.36-7.49c0-6,7.19-12.67,7.19-16.79
			c0-2.02-3.22-2.85-5.21-3.97c-2.56,4.57-5.54,9.22-9.01,14.17c-0.41,0.6-0.83,1.05-1.57,1.05c-0.91,0-1.65-0.6-1.65-1.35
			c0-0.52,0.17-0.82,0.5-1.35c3.14-4.35,5.62-8.47,8.6-14.24v-0.97c0-5.02,2.81-8.39,4.88-8.39c1.74,0,2.73,0.9,2.73,2.17
			c0,1.27-0.83,3.45-2.56,6.22c2.73,1.95,7.85,3,7.85,6.52c0,5.02-7.36,11.24-7.36,17.46C394.06,261.71,395.46,263.13,397.7,263.13z
			"/>
		<path class="st1" d="M445.4,250.39c0,0,0.58-0.82,1.32-0.82c1.07,0,1.74,0.67,1.74,1.57c0,0.3-0.16,0.67-0.33,0.97
			c-5.79,8.09-15.05,14.02-24.47,14.02c-8.02,0-12.48-3.6-12.48-10.19c0-12.37,12.15-21.51,21-21.51c4.96,0,7.85,2.25,7.85,6.22
			c0,6.07-10.58,11.69-23.98,12.82c-0.08,0.82-0.16,1.72-0.16,2.55c0,4.57,3.31,6.9,8.18,6.9
			C430.85,262.91,440.02,257.96,445.4,250.39z M416.87,250.39c10.67-1.2,18.69-5.7,18.69-10.19c0-1.65-1.41-2.7-3.47-2.7
			C427.04,237.5,419.52,242.89,416.87,250.39z"/>
		<path class="st1" d="M500.95,250.39c0,0,0.58-0.82,1.32-0.82c1.07,0.08,1.74,0.67,1.74,1.57c0,0.3-0.17,0.67-0.33,0.97
			c-4.96,6.9-10.17,10.64-16.21,10.64c-2.81,0-5.13-0.67-6.86-1.8c-3.39,3.15-7.03,5.17-10,5.17c-4.05,0-7.44-2.7-7.44-7.79
			c0-0.3,0-0.67,0.08-0.9c-3.72,4.8-7.94,8.69-12.15,8.69c-4.47,0-7.52-2.62-7.52-7.87c0-4.95,3.31-12.29,6.2-17.46
			c2.56-4.5,3.89-6.37,5.12-6.37c1.41,0,2.23,0.75,2.23,1.8c0,1.27-1.24,3.52-3.56,6.9c-2.65,4.95-5.46,11.02-5.46,15.29
			c0,3.3,1.57,4.5,3.39,4.5c3.56,0,7.19-4.05,10.91-8.92c2.89-3.75,5.62-9.44,7.85-14.17c1.9-3.97,3.06-5.4,4.38-5.4
			c1.4,0,2.23,0.75,2.23,1.8c0,1.27-1.4,3.52-3.72,6.9c-2.56,5.02-5.54,11.02-5.54,15.21c0,3.22,1.49,4.72,3.64,4.72
			c1.82,0,4.38-1.65,6.94-4.27c-0.08,0-0.08-0.08-0.08-0.15c-0.33-0.45-0.33-0.75-0.33-1.05c0-1.27,1.08-2.17,2.48-2.17
			c0.25,0,0.5,0.08,0.74,0.15c3.64-4.8,6.7-11.02,6.7-15.89c0-1.65-0.66-2.47-0.66-3.52c0-1.12,0.91-1.72,2.4-1.72
			c1.49,0,2.73,1.8,2.73,4.27c0,6.22-3.97,13.72-8.85,19.34c1.16,1.12,2.65,1.8,4.71,1.8C491.94,259.83,496.4,256.68,500.95,250.39z
			"/>
		<path class="st1" d="M496.65,257.96c0-1.35,1.57-3.82,4.3-7.57c3.06-4.2,5.38-8.54,8.27-14.17v-1.05c0-4.95,2.65-8.39,4.88-8.39
			c1.82,0,2.81,0.9,2.81,2.25c0,1.5-1.07,4.05-3.39,7.65c1.74,5.55,7.69,11.47,7.69,18.36c0,6.15-4.63,11.09-12.73,11.09
			C500.7,266.13,496.65,262.31,496.65,257.96z M511.11,240.65c-2.15,3.75-4.63,7.49-7.44,11.47c-2.07,2.77-3.06,4.42-3.06,5.4
			c0,1.8,2.15,5.62,7.61,5.62c5.21,0,8.51-3.82,8.51-8.02C516.74,249.49,513.35,245.67,511.11,240.65z"/>
	</g>
</g>
<g id="Layer_4">
	<g>
		<g>
			<g>
				<path d="M561.78,252.16c0.78,0.13,2.16,0.59,3.06,1.03s2.49,0.8,3.52,0.79s2.82-0.38,3.98-0.84c1.16-0.45,2.98-1.51,4.04-2.35
					s2.76-2.59,3.77-3.88c1.01-1.29,2.49-3.7,3.3-5.35s1.95-4.92,2.54-7.27s0.75-6.1,0.35-8.34c-0.4-2.24-1.46-4.92-2.35-5.95
					c-0.89-1.03-2.17-2.49-2.83-3.24c-0.66-0.75-2.3-1.62-3.64-1.94c-1.34-0.32-3.71-0.15-5.27,0.36c-1.56,0.51-3.8,1.65-4.97,2.52
					c-1.17,0.87-3.49,2.94-5.14,4.6c-1.65,1.66-3.56,4.14-4.23,5.51c-0.67,1.37-1.83,3.73-2.57,5.24c-0.74,1.51-1.37,4.2-1.4,5.97
					c-0.03,1.77,0.17,4.17,0.45,5.33c0.27,1.16,1.13,2.83,1.91,3.72c0.78,0.89,2.01,2.12,2.74,2.73S561,252.03,561.78,252.16z"/>
			</g>
		</g>
		<g>
			<path class="st2" d="M578.47,220.5c-0.01-0.32-0.32-0.61-0.69-0.65c-0.37-0.04-1.06,0.16-1.53,0.45c-0.47,0.28-1,0.72-1.18,0.98
				c-0.18,0.25-0.57,0.67-0.86,0.93c-0.29,0.26-0.6,0.88-0.68,1.38c-0.08,0.5-0.23,1.18-0.33,1.5c-0.1,0.32-0.43,1.09-0.74,1.71
				c-0.3,0.62-0.67,1.82-0.8,2.67c-0.14,0.85-0.76,2.67-1.38,4.05s-1.38,3.02-1.68,3.64c-0.3,0.62-0.75,1.43-0.98,1.8
				c-0.24,0.37-0.98,1.24-1.65,1.94c-0.67,0.7-1.43,1.78-1.68,2.4c-0.25,0.62-0.47,1.73-0.5,2.45c-0.03,0.73,0.13,1.62,0.34,1.98
				c0.21,0.36,0.65,0.48,0.97,0.27c0.33-0.21,0.5-0.76,0.39-1.21c-0.11-0.45,0.19-1.43,0.66-2.17s1.45-1.9,2.17-2.57
				c0.72-0.68,1.76-1.87,2.31-2.66c0.55-0.79,1.53-2.5,2.17-3.82c0.64-1.31,1.32-2.97,1.5-3.68s0.51-2.02,0.72-2.92
				c0.22-0.89,0.51-2.41,0.64-3.37c0.14-0.96,0.46-2.18,0.72-2.71c0.26-0.53,0.84-1.16,1.29-1.39
				C578.12,221.28,578.48,220.82,578.47,220.5z"/>
		</g>
	</g>
	<g>
		<g>
			<g>
				<path d="M602.2,219.1c0.75-0.25,2.18-0.48,3.19-0.51s2.57-0.45,3.48-0.93c0.91-0.48,2.32-1.65,3.13-2.59
					c0.81-0.94,1.93-2.72,2.48-3.96c0.55-1.24,1.24-3.57,1.53-5.19c0.29-1.61,0.49-4.44,0.44-6.27c-0.05-1.83-0.56-5.26-1.13-7.62
					s-2.17-5.75-3.57-7.55c-1.39-1.8-3.57-3.68-4.84-4.18s-3.08-1.2-4.01-1.56c-0.93-0.36-2.79-0.37-4.12-0.03
					c-1.33,0.34-3.36,1.59-4.5,2.77s-2.6,3.22-3.23,4.54c-0.63,1.32-1.72,4.23-2.41,6.46s-1.23,5.32-1.18,6.85
					c0.04,1.53,0.11,4.15,0.16,5.84s0.74,4.35,1.54,5.94s2.09,3.61,2.87,4.51c0.78,0.9,2.32,1.98,3.42,2.41
					c1.1,0.43,2.76,0.95,3.69,1.15S601.45,219.35,602.2,219.1z"/>
			</g>
		</g>
		<g>
			<path class="st2" d="M602.27,183.31c-0.16-0.28-0.57-0.39-0.91-0.25c-0.34,0.14-0.86,0.63-1.14,1.1
				c-0.29,0.47-0.55,1.11-0.59,1.42c-0.04,0.31-0.19,0.86-0.33,1.22c-0.14,0.36-0.12,1.05,0.04,1.54c0.16,0.48,0.34,1.15,0.4,1.48
				s0.12,1.17,0.14,1.86c0.02,0.69,0.26,1.92,0.53,2.74c0.27,0.81,0.57,2.71,0.66,4.22c0.09,1.51,0.18,3.31,0.2,4
				c0.02,0.69,0,1.62-0.03,2.05c-0.04,0.44-0.29,1.56-0.56,2.49c-0.27,0.93-0.44,2.24-0.37,2.9c0.07,0.66,0.38,1.75,0.7,2.41
				c0.32,0.66,0.87,1.38,1.22,1.6c0.35,0.22,0.8,0.12,0.99-0.21c0.19-0.34,0.09-0.9-0.22-1.25c-0.31-0.35-0.5-1.35-0.42-2.23
				c0.08-0.87,0.4-2.35,0.72-3.28s0.69-2.47,0.81-3.43s0.19-2.93,0.15-4.39c-0.04-1.46-0.21-3.24-0.38-3.95
				c-0.17-0.71-0.49-2.03-0.71-2.92c-0.22-0.89-0.67-2.37-0.99-3.28c-0.32-0.91-0.6-2.14-0.62-2.73c-0.02-0.59,0.21-1.41,0.49-1.83
				S602.42,183.59,602.27,183.31z"/>
		</g>
	</g>
	<g>
		<g>
			<g>
				<path d="M609.08,265.1c0.75-0.25,2.18-0.48,3.19-0.51s2.57-0.45,3.48-0.93c0.91-0.48,2.32-1.65,3.13-2.59
					c0.81-0.94,1.93-2.72,2.48-3.96s1.24-3.57,1.53-5.19c0.29-1.61,0.49-4.44,0.44-6.27c-0.05-1.83-0.56-5.26-1.13-7.62
					s-2.17-5.75-3.57-7.55c-1.39-1.8-3.57-3.68-4.84-4.18c-1.27-0.5-3.08-1.2-4.01-1.56c-0.93-0.36-2.79-0.37-4.12-0.03
					c-1.33,0.34-3.36,1.59-4.5,2.77c-1.14,1.18-2.6,3.22-3.23,4.54c-0.63,1.32-1.72,4.23-2.41,6.46c-0.69,2.24-1.23,5.32-1.18,6.85
					c0.04,1.53,0.11,4.15,0.16,5.84s0.74,4.35,1.54,5.94c0.8,1.58,2.09,3.61,2.87,4.51c0.78,0.9,2.32,1.98,3.42,2.41
					c1.1,0.43,2.76,0.95,3.69,1.15C606.96,265.39,608.33,265.35,609.08,265.1z"/>
			</g>
		</g>
		<g>
			<path class="st2" d="M609.14,229.32c-0.16-0.28-0.57-0.39-0.91-0.25c-0.34,0.14-0.86,0.63-1.14,1.1
				c-0.29,0.47-0.55,1.11-0.59,1.42c-0.04,0.31-0.19,0.86-0.33,1.22s-0.12,1.05,0.04,1.54s0.34,1.15,0.4,1.48
				c0.06,0.33,0.12,1.17,0.14,1.86c0.02,0.69,0.26,1.92,0.53,2.74c0.27,0.81,0.57,2.71,0.66,4.22c0.09,1.51,0.18,3.31,0.2,4
				c0.02,0.69,0,1.62-0.03,2.05c-0.04,0.44-0.29,1.56-0.56,2.49s-0.44,2.24-0.37,2.9c0.07,0.66,0.38,1.75,0.7,2.41
				c0.32,0.66,0.87,1.38,1.22,1.6c0.35,0.22,0.8,0.12,0.99-0.21c0.19-0.34,0.09-0.9-0.22-1.25c-0.31-0.35-0.5-1.35-0.42-2.23
				c0.08-0.87,0.4-2.35,0.72-3.28c0.32-0.93,0.69-2.47,0.81-3.43c0.12-0.95,0.19-2.93,0.15-4.39c-0.04-1.46-0.21-3.24-0.38-3.95
				s-0.49-2.03-0.71-2.92c-0.22-0.89-0.67-2.37-0.99-3.28c-0.32-0.91-0.6-2.14-0.62-2.73c-0.02-0.59,0.2-1.41,0.49-1.83
				C609.2,230.17,609.3,229.6,609.14,229.32z"/>
		</g>
	</g>
	<g>
		<g>
			<g>
				<path class="st3" d="M350.13,620.47c0.54,3.81,3.91,8.1,7.48,9.53l23.18,9.27c3.57,1.43,9.63,2.97,13.45,3.42l21.21,2.5
					c3.82,0.45,10.02,0.09,13.76-0.79l25.75-6.08c3.75-0.89,9.86-2.4,13.59-3.36l2.41-0.62c3.73-0.97,7.24-4.87,7.81-8.68
					L498,496.87c0.57-3.81,1.03-10.07,1.03-13.92v-6.67c0-3.85,0-8.86,0-11.13s1.62-6.83,3.6-10.13l0.24-0.4
					c1.98-3.3,3.6-8.79,3.6-12.2s-3.13-5.89-6.97-5.51l-27.57,2.75c-3.83,0.38-10.11,0.87-13.95,1.09l-22.2,1.27
					c-3.84,0.22-10.14,0.31-13.99,0.2l-22.19-0.63c-3.85-0.11-10.11-0.7-13.91-1.32l-18.11-2.93c-3.8-0.62-10.01-1.67-13.8-2.34
					l-21.33-3.77c-3.79-0.67-6.89,1.81-6.89,5.5s-0.83,9.76-1.85,13.47l-0.55,2c-1.02,3.71-1.85,9.08-1.85,11.92s1.92,7.03,4.26,9.3
					s4.7,7.25,5.24,11.06L350.13,620.47z"/>
				<path class="st4" d="M350.13,620.47c0.54,3.81,3.91,8.1,7.48,9.53l23.18,9.27c3.57,1.43,9.63,2.97,13.45,3.42l21.21,2.5
					c3.82,0.45,10.02,0.09,13.76-0.79l25.75-6.08c3.75-0.89,9.86-2.4,13.59-3.36l2.41-0.62c3.73-0.97,7.24-4.87,7.81-8.68
					L498,496.87c0.57-3.81,1.03-10.07,1.03-13.92v-6.67c0-3.85,0-8.86,0-11.13s1.62-6.83,3.6-10.13l0.24-0.4
					c1.98-3.3,3.6-8.79,3.6-12.2s-3.13-5.89-6.97-5.51l-27.57,2.75c-3.83,0.38-10.11,0.87-13.95,1.09l-22.2,1.27
					c-3.84,0.22-10.14,0.31-13.99,0.2l-22.19-0.63c-3.85-0.11-10.11-0.7-13.91-1.32l-18.11-2.93c-3.8-0.62-10.01-1.67-13.8-2.34
					l-21.33-3.77c-3.79-0.67-6.89,1.81-6.89,5.5s-0.83,9.76-1.85,13.47l-0.55,2c-1.02,3.71-1.85,9.08-1.85,11.92s1.92,7.03,4.26,9.3
					s4.7,7.25,5.24,11.06L350.13,620.47z"/>
			</g>
			<g>
				<path class="st5" d="M404.24,358.45c2.97-2.45,8.48-3.75,12.23-2.9l8.69,1.97c3.76,0.85,8.02,4.04,9.49,7.1
					c1.46,3.06,5.29,6.47,8.51,7.58s6.81,4.29,7.98,7.07c1.17,2.78,5,5.05,8.51,5.05c3.51,0,7.34,1.59,8.51,3.54
					c1.17,1.95,2.13,4.67,2.13,6.06c0,1.39,3.08,3.19,6.84,4l9.73,2.1c3.76,0.81,6.84,3.07,6.84,5.01s2.87,4.45,6.39,5.56
					c3.51,1.11,6.39,4.29,6.39,7.07c0,2.78,1.92,5.05,4.26,5.05c2.34,0,4.26,2.05,4.26,4.55s-1.92,5.91-4.26,7.58
					c-2.34,1.67-7.24,4.03-10.89,5.26l-12.22,4.1c-3.65,1.22-9.78,2.46-13.62,2.75l-20.26,1.53c-3.84,0.29-10.13,0.53-13.98,0.53
					h-16.75c-3.85,0-10.14-0.22-13.98-0.49l-28.23-1.99c-3.84-0.27-10.09-1.01-13.89-1.64l-17.19-2.86
					c-3.8-0.63-9.86-2.25-13.46-3.6l-8.4-3.14c-3.61-1.35-7.76-4.27-9.22-6.49s-0.27-5.18,2.66-6.57c2.93-1.39,4.12-4.57,2.66-7.07
					c-1.46-2.5,0.3-5.63,3.91-6.95l0.68-0.25c3.62-1.32,7.04-5.52,7.62-9.32l0.05-0.3c0.57-3.81,4.17-7.32,7.99-7.8l2.07-0.26
					c3.82-0.48,8.38-0.88,10.14-0.88s5-2.58,7.21-5.73l2.6-3.7c2.21-3.15,6.9-6.64,10.41-7.75c3.51-1.11,8.78-2.7,11.71-3.54
					c2.93-0.83,7.75-3.52,10.73-5.96L404.24,358.45z"/>
				<path class="st4" d="M404.24,358.45c2.97-2.45,8.48-3.75,12.23-2.9l8.69,1.97c3.76,0.85,8.02,4.04,9.49,7.1
					c1.46,3.06,5.29,6.47,8.51,7.58s6.81,4.29,7.98,7.07c1.17,2.78,5,5.05,8.51,5.05c3.51,0,7.34,1.59,8.51,3.54
					c1.17,1.95,2.13,4.67,2.13,6.06c0,1.39,3.08,3.19,6.84,4l9.73,2.1c3.76,0.81,6.84,3.07,6.84,5.01s2.87,4.45,6.39,5.56
					c3.51,1.11,6.39,4.29,6.39,7.07c0,2.78,1.92,5.05,4.26,5.05c2.34,0,4.26,2.05,4.26,4.55s-1.92,5.91-4.26,7.58
					c-2.34,1.67-7.24,4.03-10.89,5.26l-12.22,4.1c-3.65,1.22-9.78,2.46-13.62,2.75l-20.26,1.53c-3.84,0.29-10.13,0.53-13.98,0.53
					h-16.75c-3.85,0-10.14-0.22-13.98-0.49l-28.23-1.99c-3.84-0.27-10.09-1.01-13.89-1.64l-17.19-2.86
					c-3.8-0.63-9.86-2.25-13.46-3.6l-8.4-3.14c-3.61-1.35-7.76-4.27-9.22-6.49s-0.27-5.18,2.66-6.57c2.93-1.39,4.12-4.57,2.66-7.07
					c-1.46-2.5,0.3-5.63,3.91-6.95l0.68-0.25c3.62-1.32,7.04-5.52,7.62-9.32l0.05-0.3c0.57-3.81,4.17-7.32,7.99-7.8l2.07-0.26
					c3.82-0.48,8.38-0.88,10.14-0.88s5-2.58,7.21-5.73l2.6-3.7c2.21-3.15,6.9-6.64,10.41-7.75c3.51-1.11,8.78-2.7,11.71-3.54
					c2.93-0.83,7.75-3.52,10.73-5.96L404.24,358.45z"/>
			</g>
			<g>
				<g>
					<path d="M466.96,488.49c10.7,0.89,21.56-0.56,31.65-4.27c1.8-0.66,1.02-3.56-0.8-2.89c-9.86,3.63-20.38,5.03-30.85,4.17
						C465.04,485.33,465.05,488.33,466.96,488.49L466.96,488.49z"/>
				</g>
			</g>
			<g>
				<g>
					<path d="M328.78,483.95c15.95,4.73,32.74,4.19,49.18,3.58c1.92-0.07,1.93-3.07,0-3c-16.17,0.59-32.69,1.18-48.38-3.47
						C327.72,480.51,326.93,483.4,328.78,483.95L328.78,483.95z"/>
				</g>
			</g>
			<g>
				<g>
					<path d="M391.16,488.82c21.17,0.53,42.35,0.36,63.5-0.5c1.92-0.08,1.93-3.08,0-3c-21.15,0.87-42.33,1.03-63.5,0.5
						C389.23,485.77,389.23,488.77,391.16,488.82L391.16,488.82z"/>
				</g>
			</g>
			<g>
				<g>
					<ellipse class="st6" cx="413.9" cy="557" rx="53.21" ry="50"/>
				</g>
				<g>
					<g>
						<g>
							<g>
								<path d="M399.75,590.71c0.57-0.12,1.62-0.19,2.35-0.16s1.9-0.15,2.61-0.42c0.7-0.26,1.84-0.94,2.52-1.5s1.66-1.65,2.19-2.42
									c0.52-0.77,1.25-2.23,1.62-3.26c0.37-1.02,0.79-2.83,0.94-4.01c0.15-1.18,0.12-3.42-0.06-4.96s-1-3.82-1.83-5.05
									c-0.83-1.23-2.22-2.55-3.08-2.94c-0.87-0.39-2.1-0.93-2.74-1.21c-0.64-0.28-1.98-0.38-2.97-0.23
									c-1,0.15-2.58,0.85-3.52,1.54c-0.94,0.7-2.19,1.94-2.78,2.75c-0.59,0.81-1.66,2.63-2.38,4.03s-1.41,3.36-1.53,4.34
									c-0.12,0.99-0.33,2.68-0.46,3.76c-0.13,1.08,0.1,2.84,0.52,3.9c0.42,1.06,1.15,2.43,1.63,3.05c0.47,0.62,1.48,1.4,2.23,1.73
									c0.75,0.33,1.9,0.75,2.55,0.93C398.19,590.79,399.18,590.84,399.75,590.71z"/>
							</g>
						</g>
						<g>
							<path class="st2" d="M403.34,567.69c-0.09-0.19-0.37-0.28-0.63-0.21c-0.26,0.07-0.68,0.36-0.94,0.65
								c-0.25,0.29-0.51,0.68-0.57,0.88c-0.06,0.2-0.22,0.54-0.36,0.77c-0.14,0.23-0.19,0.67-0.12,0.99s0.13,0.76,0.14,0.97
								c0.01,0.22-0.03,0.76-0.08,1.21s-0.01,1.25,0.11,1.79c0.12,0.54,0.14,1.78,0.06,2.75c-0.08,0.98-0.2,2.14-0.25,2.59
								c-0.05,0.45-0.16,1.04-0.23,1.32c-0.07,0.28-0.36,0.99-0.65,1.57c-0.29,0.58-0.54,1.42-0.56,1.85
								c-0.02,0.43,0.1,1.14,0.27,1.58c0.16,0.44,0.49,0.93,0.72,1.09c0.23,0.16,0.56,0.12,0.73-0.09c0.17-0.21,0.16-0.58-0.03-0.82
								c-0.19-0.24-0.23-0.9-0.09-1.45s0.52-1.49,0.85-2.08s0.74-1.56,0.92-2.16s0.43-1.87,0.54-2.81c0.12-0.94,0.17-2.1,0.12-2.56
								s-0.15-1.33-0.23-1.91c-0.07-0.59-0.25-1.56-0.39-2.16c-0.14-0.61-0.22-1.41-0.18-1.79c0.05-0.38,0.29-0.9,0.54-1.15
								S403.42,567.88,403.34,567.69z"/>
						</g>
						<g>
							<g>
								<path d="M419.26,560.87c0.45-0.34,1.38-0.83,2.06-1.11c0.68-0.27,1.65-0.91,2.16-1.43s1.18-1.57,1.51-2.33
									s0.65-2.11,0.72-2.98c0.07-0.88-0.03-2.44-0.23-3.47s-0.76-2.76-1.25-3.84c-0.49-1.08-1.69-2.99-2.66-4.24
									s-2.91-2.87-4.31-3.59s-3.36-1.28-4.36-1.26c-1,0.02-2.41,0.06-3.13,0.09c-0.73,0.02-2,0.48-2.83,1.02
									c-0.83,0.54-1.91,1.79-2.4,2.78s-0.98,2.57-1.09,3.51c-0.11,0.94-0.13,2.95-0.05,4.45c0.08,1.5,0.48,3.47,0.89,4.37
									c0.41,0.9,1.11,2.44,1.56,3.43s1.58,2.4,2.52,3.14c0.94,0.74,2.33,1.62,3.09,1.96c0.76,0.34,2.08,0.59,2.94,0.57
									s2.13-0.14,2.82-0.25C417.88,561.57,418.81,561.2,419.26,560.87z"/>
							</g>
						</g>
						<g>
							<path class="st2" d="M410.44,539.59c-0.18-0.13-0.49-0.09-0.69,0.08c-0.2,0.17-0.43,0.59-0.51,0.94s-0.1,0.8-0.06,0.99
								c0.05,0.19,0.08,0.56,0.08,0.81c-0.01,0.25,0.18,0.66,0.41,0.9c0.23,0.25,0.52,0.6,0.64,0.78c0.12,0.18,0.37,0.66,0.56,1.07
								c0.18,0.41,0.65,1.08,1.04,1.49c0.39,0.41,1.06,1.47,1.5,2.34c0.44,0.87,0.95,1.92,1.13,2.33c0.18,0.41,0.4,0.96,0.49,1.23
								s0.19,1,0.23,1.62c0.04,0.62,0.25,1.44,0.46,1.82c0.21,0.38,0.7,0.94,1.08,1.25c0.38,0.31,0.93,0.6,1.23,0.64
								c0.3,0.04,0.58-0.13,0.62-0.38c0.05-0.25-0.16-0.56-0.46-0.69s-0.68-0.68-0.84-1.22s-0.31-1.5-0.32-2.13
								s-0.14-1.64-0.29-2.24s-0.59-1.79-0.98-2.64c-0.39-0.86-0.95-1.87-1.24-2.25c-0.29-0.38-0.84-1.08-1.21-1.55
								c-0.37-0.47-1.05-1.24-1.5-1.7c-0.45-0.46-0.94-1.12-1.1-1.47c-0.16-0.35-0.21-0.89-0.12-1.21
								C410.68,540.08,410.61,539.71,410.44,539.59z"/>
						</g>
						<g>
							<g>
								<path d="M435.37,586.47c0.45-0.34,1.38-0.83,2.06-1.11s1.65-0.91,2.16-1.43s1.18-1.57,1.51-2.33s0.65-2.11,0.72-2.98
									c0.07-0.88-0.03-2.44-0.23-3.47s-0.76-2.76-1.25-3.84c-0.49-1.08-1.69-2.99-2.66-4.24s-2.91-2.87-4.31-3.59
									s-3.36-1.28-4.36-1.26c-1,0.02-2.41,0.06-3.13,0.09c-0.73,0.02-2,0.48-2.83,1.02c-0.83,0.54-1.91,1.79-2.4,2.78
									s-0.98,2.57-1.09,3.51s-0.13,2.95-0.05,4.45c0.08,1.5,0.48,3.47,0.89,4.37c0.41,0.9,1.11,2.44,1.56,3.43s1.58,2.4,2.52,3.14
									c0.94,0.74,2.33,1.62,3.09,1.96c0.76,0.34,2.08,0.59,2.94,0.57s2.13-0.14,2.82-0.25
									C433.99,587.17,434.92,586.8,435.37,586.47z"/>
							</g>
						</g>
						<g>
							<path class="st2" d="M426.55,565.19c-0.18-0.13-0.49-0.09-0.69,0.08c-0.2,0.17-0.43,0.59-0.51,0.94
								c-0.08,0.35-0.1,0.8-0.06,0.99c0.05,0.19,0.08,0.56,0.08,0.81c-0.01,0.25,0.18,0.66,0.41,0.9c0.23,0.25,0.52,0.6,0.64,0.78
								c0.12,0.18,0.37,0.66,0.56,1.07c0.18,0.41,0.65,1.08,1.04,1.49c0.39,0.41,1.06,1.47,1.5,2.34c0.44,0.87,0.95,1.92,1.13,2.33
								c0.18,0.41,0.4,0.96,0.49,1.23s0.19,1,0.23,1.62c0.04,0.62,0.25,1.44,0.46,1.82c0.21,0.38,0.7,0.94,1.08,1.25
								c0.38,0.31,0.93,0.6,1.23,0.64c0.3,0.04,0.58-0.13,0.62-0.38c0.05-0.25-0.16-0.56-0.46-0.69c-0.3-0.13-0.68-0.68-0.84-1.22
								s-0.31-1.5-0.32-2.13c-0.01-0.64-0.14-1.64-0.29-2.24s-0.59-1.79-0.98-2.64c-0.39-0.86-0.95-1.87-1.24-2.25
								c-0.29-0.38-0.84-1.08-1.21-1.55c-0.37-0.47-1.05-1.24-1.5-1.7c-0.45-0.46-0.94-1.12-1.1-1.47
								c-0.16-0.35-0.21-0.89-0.12-1.21C426.8,565.68,426.73,565.31,426.55,565.19z"/>
						</g>
					</g>
					<g>
						<g>
							<path d="M378.77,533.7c-1.98-1.96-3.62-3.63-3.65-3.71s0.72-0.87,1.51-1.59s3.14-1.97,5.24-2.77c0,0,0,0,1.32,1.3
								c1.35,1.34,1.35,1.34,1.35,1.34c-0.89,1.98-1.96,3.92-2.37,4.3s-0.18,1.27,0.52,1.97s1.3,1.33,1.33,1.42s-0.33,0.5-0.63,0.78
								s-0.63,0.54-0.72,0.58S380.75,535.66,378.77,533.7z M380.78,531.3c0.39-0.36,1.05-1.39,1.47-2.3c0,0,0,0-0.64-0.64
								c-0.6-0.59-0.6-0.59-0.6-0.59c-0.94,0.39-2.03,1-2.41,1.36s-0.21,1.14,0.39,1.74S380.39,531.66,380.78,531.3z"/>
							<path d="M387.12,529.46c0.99-1.16,2.06-2.22,2.37-2.36s0.21-0.59-0.23-0.99c0,0,0,0-0.52,0.33
								c-0.52,0.32-0.52,0.32-0.52,0.32c-0.52,0.47-1.01,0.88-1.11,0.91s-0.43-0.22-0.59-0.38s-0.33-0.44-0.39-0.61
								c0,0,0,0,0.1-0.12c0.09-0.11,0.09-0.11,0.09-0.11c0.92-0.73,2.29-1.45,3.04-1.59s2.68,1.74,3.18,2.49s0.91,1.45,0.92,1.54
								s-0.24,0.32-0.38,0.41s-0.3,0.17-0.35,0.19s-0.35-0.11-0.46-0.18s-0.39,0.41-0.62,1.06c0,0,0,0-0.88,0.54
								c-1.13,0.7-2.35,0.53-3.06-0.55C387.12,529.46,387.12,529.46,387.12,529.46z M390.45,529.59c0.45-0.28,0.45-0.28,0.45-0.28
								c0.11-0.45,0.09-0.98-0.03-1.17s-0.45-0.31-0.71-0.26c0,0,0,0-0.41,0.25c-0.55,0.34-0.74,0.85-0.47,1.26
								C389.53,529.77,390.01,529.87,390.45,529.59z"/>
							<path d="M392.55,524.08c1.5-1.47,3.14-2.75,3.65-2.85s1.83,0.26,1.89,0.33s-0.11,0.5-0.23,0.75s-0.28,0.49-0.35,0.53
								s-0.46,0-0.69-0.05s-1.4,0.67-2.07,1.37c0,0,0,0,0.34,0.78c0.35,0.79,1.28,1.13,2.11,0.78c0.66-0.28,0.66-0.28,0.66-0.28
								c0.19-0.42,0.39-0.82,0.44-0.89s0.46-0.03,0.71,0.03s0.52,0.15,0.61,0.2s-0.07,0.65-0.3,1.13s-3.22,1.39-5.32,1.47
								c0,0,0,0-0.73-1.66C392.55,524.08,392.55,524.08,392.55,524.08z"/>
							<path d="M398.55,516.98c-0.16-0.55,0.19-1.14,0.8-1.32c0.63-0.18,1.26,0.12,1.42,0.68c0.16,0.55-0.21,1.15-0.84,1.33
								C399.33,517.84,398.71,517.53,398.55,516.98z M400.43,522.91c-0.42-1.45-0.75-2.7-0.73-2.79s0.49-0.29,0.86-0.4
								s0.74-0.19,0.84-0.18s0.56,1.36,0.98,2.8s0.75,2.7,0.73,2.79s-0.49,0.29-0.86,0.4s-0.74,0.18-0.84,0.17
								S400.85,524.36,400.43,522.91z"/>
							<path d="M404.87,522.31c-0.15-1.14-0.4-2.06-0.55-2.03s-0.36,0.02-0.45,0s-0.21-0.42-0.25-0.7s-0.04-0.57-0.02-0.66
								s0.36-0.2,0.51-0.22s0.23-0.41,0.17-0.86s0.35-2.27,0.91-4.04c0,0,0,0,1.85-0.27c1.09-0.16,1.09-0.16,1.09-0.16
								c0.84,0.24,1.57,0.49,1.63,0.55s-0.06,0.49-0.18,0.78s-0.27,0.57-0.33,0.65s-0.77-0.06-1.32-0.21c0,0,0,0-0.66,0.1
								c-0.6,0.09-0.6,0.09-0.6,0.09c-0.24,0.78-0.39,1.79-0.33,2.24s1.11,0.67,2.33,0.49s2.3-0.31,2.39-0.29s0.35,1.43,0.54,2.92
								s0.33,2.79,0.3,2.87s-0.53,0.22-0.91,0.28s-0.76,0.08-0.85,0.06s-0.31-1.13-0.45-2.27s-0.89-1.98-1.65-1.87
								s-1.26,1.13-1.11,2.27s0.19,2.15,0.1,2.24s-0.67,0.24-0.98,0.29s-0.64,0.06-0.73,0.04S405.01,523.45,404.87,522.31z"/>
							<path d="M416.94,517.53c1.03,0.03,1.03,0.03,1.03,0.03c0.75,0.61,1.39,1.19,1.4,1.27s-0.32,0.41-0.54,0.59
								s-0.47,0.33-0.55,0.34s-0.56-0.3-0.92-0.58c0,0,0,0-0.47-0.01c-0.9-0.02-1.67,0.66-1.72,1.51c-0.05,0.87,0.63,1.57,1.53,1.59
								c0.72,0.02,0.72,0.02,0.72,0.02c0.36-0.31,0.71-0.59,0.79-0.63s0.43,0.16,0.62,0.32s0.39,0.35,0.45,0.43s-0.7,0.85-1.54,1.53
								c0,0,0,0-1.18-0.03c-1.88-0.05-3.45-1.45-3.35-3.28C413.32,518.84,415.08,517.48,416.94,517.53z"/>
							<path d="M426.09,516.24c3.59-0.35,7.1-0.34,7.81,0.01s2.06,1.92,2.07,2.02s-0.44,0.39-0.79,0.56s-0.71,0.32-0.8,0.33
								s-0.52-0.43-0.86-0.8s-3.34-0.7-5.57-0.42c0,0,0,0-0.64,1.83c-0.64,1.82-0.64,1.82-0.64,1.82c1.65,1.43,3.41,2.64,3.93,2.69
								s1.85-0.2,1.94-0.2s0.38,0.39,0.56,0.73s0.32,0.68,0.32,0.77s-0.81,0.38-1.61,0.57s-5.07-1.88-7.75-4.09c0,0,0,0,1.02-2.9
								C426.09,516.24,426.09,516.24,426.09,516.24z"/>
							<path d="M435.26,525.03c0.75-1.35,1.42-2.5,1.49-2.56s0.41,0.03,0.56,0.11s0.32,0.18,0.37,0.22s0.06,0.36,0.03,0.53
								s0.5,0.1,1.17-0.17c0,0,0,0,0.91,0.44c0.69,0.33,0.69,0.33,0.69,0.33c0.08,0.42-0.09,0.9-0.38,1.07s-0.59,0.33-0.67,0.35
								s-0.3-0.12-0.36-0.18s-0.53-0.2-0.84-0.23s-1.19,0.84-1.68,1.74s-0.97,1.69-1.04,1.74s-0.6-0.13-0.91-0.28
								s-0.61-0.33-0.67-0.4S434.52,526.39,435.26,525.03z"/>
							<path d="M444.65,526.62c1.38,0.94,1.38,0.94,1.38,0.94c-0.35,1.7-0.68,3.14-0.74,3.2s-0.25,0.22-0.33,0.26
								s-1.04-0.55-1.98-1.19s-1.78-0.85-1.87-0.46s1.03,1.43,1.53,1.65c0,0,0,0,0.36,0c0.19,0.02,0.19,0.02,0.19,0.02
								c0.09,0.12,0.18,0.44,0.21,0.7s0.04,0.55,0.03,0.63s-0.6,0.14-1.06,0.12s-2.52-2.01-3.53-3.7c0,0,0,0,1.09-1.43
								C441.01,525.96,443.06,525.53,444.65,526.62z M443.06,528.56c0.56,0.38,1.09,0.17,1.19-0.48c0,0,0,0-0.51-0.35
								c-0.53-0.37-0.53-0.37-0.53-0.37C442.57,527.64,442.51,528.18,443.06,528.56z"/>
							<path d="M444.18,533.43c0.05-0.05,0.3-0.16,0.55-0.24s0.53-0.15,0.61-0.14s0.26,0.33,0.33,0.54s0.9,1.01,1.17,1.16
								c0,0,0,0,0.19-0.19c0.2-0.2,0.16-0.47-0.24-1.29c-0.58-1.17-0.55-2.02,0.13-2.7c0.68-0.68,0.68-0.68,0.68-0.68
								c1.31,0.53,2.61,1.26,2.89,1.62s0.6,1.11,0.59,1.21s-0.38,0.29-0.62,0.37s-0.5,0.13-0.58,0.11s-0.28-0.31-0.36-0.51
								s-0.71-0.84-0.86-0.91s-0.41,0.12-0.43,0.25s0.65,1.78,1.14,2.97c0,0,0,0-0.87,0.87c-0.74,0.73-0.74,0.73-0.74,0.73
								c-1.38-0.61-2.75-1.44-3.05-1.84S444.13,533.48,444.18,533.43z"/>
							<path d="M450.8,536.22c0.6-0.47,1.02-0.95,0.93-1.06s-0.19-0.28-0.21-0.36s0.28-0.4,0.51-0.58s0.49-0.34,0.58-0.37
								s0.34,0.17,0.44,0.29s0.49-0.03,0.87-0.33s0.77-0.56,0.86-0.58s0.46,0.31,0.69,0.58s0.44,0.57,0.46,0.65s-0.4,0.5-0.79,0.79
								s-0.5,0.79-0.25,1.08s0.47,0.61,0.5,0.7s-0.28,0.41-0.51,0.59s-0.49,0.34-0.58,0.37s-0.48-0.34-0.72-0.63
								s-0.9-0.19-1.45,0.24s-1.11,1-1.25,1.27c0,0,0,0,0.17,0.2c0.17,0.21,0.48,0.4,0.64,0.49c0.16,0.1,0.16,0.1,0.16,0.1
								c-0.04,0.15-0.21,0.47-0.37,0.71s-0.35,0.47-0.42,0.52s-0.52-0.13-0.8-0.3s-1.15-1.32-1.29-1.82S450.2,536.69,450.8,536.22z"
								/>
						</g>
					</g>
				</g>
			</g>
			<g>
				<g>
					<path d="M402.04,382.43c8.05,1.95,21.37,2.77,23.19-8.18c0.52-3.15-4.3-4.5-4.82-1.33c-1.31,7.88-11.61,6.01-17.04,4.69
						C400.25,376.85,398.91,381.67,402.04,382.43L402.04,382.43z"/>
				</g>
			</g>
			<g>
				<g>
					<path d="M389.74,395.23c5.15,8.4,20.59,8.11,29.19,8.16c9.13,0.05,21.63,1.22,28.53-6.03c2.22-2.33-1.31-5.87-3.54-3.54
						c-5.4,5.68-15.98,4.51-23.17,4.56c-4.21,0.03-8.45-0.07-12.63-0.6c-4.17-0.53-11.64-1.15-14.05-5.08
						C392.37,389.97,388.05,392.48,389.74,395.23L389.74,395.23z"/>
				</g>
			</g>
			<g>
				<g>
					<path d="M457.6,414.61c8.67,1.77,17.61-0.72,23.68-7.29c2.18-2.36-1.35-5.91-3.54-3.54c-4.83,5.24-11.83,7.43-18.81,6
						C455.78,409.15,454.44,413.97,457.6,414.61L457.6,414.61z"/>
				</g>
			</g>
			<g>
				<g>
					<path d="M482.35,405.66c3.22,0,3.22-5,0-5C479.13,400.66,479.13,405.66,482.35,405.66L482.35,405.66z"/>
				</g>
			</g>
			<g>
				<g>
					<path d="M367.38,380.68c-1.96,7.78,5.2,15.32,13,14.69c3.18-0.26,3.21-5.26,0-5c-4.45,0.36-9.39-3.55-8.18-8.36
						C372.98,378.88,368.16,377.55,367.38,380.68L367.38,380.68z"/>
				</g>
			</g>
			<g>
				<g>
					<path d="M349.69,407.97c5.13,12.27,19.03,6.02,28.55,5.06c14.03-1.42,24.41,12.09,37.79,14.36c5.57,0.94,10.96,0.16,15.53-3.29
						c3.1-2.34,5.21-4.37,9.27-4.83c3.38-0.38,6.83,0.26,10.12,0.98c15.04,3.3,29.15,5.62,44.62,3.93c3.16-0.34,3.2-5.35,0-5
						c-14.33,1.56-27.78-0.12-41.74-3.39c-4.9-1.15-10.11-2.2-15.13-1.24c-6.13,1.17-9.58,6.83-15.52,7.98
						c-12.44,2.4-22.91-9-33.8-12.93c-5.3-1.91-10.53-1.95-16-0.75c-5.23,1.14-15.93,4.81-18.86-2.2
						C353.29,403.71,348.45,405,349.69,407.97L349.69,407.97z"/>
				</g>
			</g>
			<g>
				<g>
					<path d="M334.31,422.76c19.18,6.57,39.23,9.92,59.5,10.07c3.22,0.02,3.22-4.98,0-5c-19.86-0.14-39.38-3.46-58.18-9.89
						C332.59,416.89,331.28,421.72,334.31,422.76L334.31,422.76z"/>
				</g>
			</g>
			<g>
				<g>
					<path d="M436.74,441.46c17.37,0.78,34.93,1.35,51.79-3.64c3.08-0.91,1.77-5.74-1.33-4.82c-16.43,4.87-33.53,4.23-50.46,3.46
						C433.53,436.32,433.53,441.32,436.74,441.46L436.74,441.46z"/>
				</g>
			</g>
		</g>
	</g>
</g>
<g id="Layer_3">
	<g>
		<g>
			<g>
				<path class="st7" d="M604.79,633.7c-3.74-0.93-7-4.84-7.26-8.68l-14.06-208.03c-0.26-3.84-2.27-6.98-4.47-6.98s-4.9-2.02-6-4.5
					s-2-7.65-2-11.5l0,0c0-3.85,1.35-8.58,3-10.5s4.8-3.5,7-3.5s7.15,0,11,0h143c3.85,0,8.13,0.9,9.5,2s2.5,5.15,2.5,9v5
					c0,3.85-1.13,8.8-2.5,11s-4.08,4.23-6,4.5s-3.68,3.64-3.91,7.49l-2.18,37.02c-0.23,3.84-0.66,10.13-0.96,13.97l-8.89,112.04
					c-0.3,3.84-0.92,10.11-1.36,13.93l-3.38,29.09c-0.44,3.82-3.86,7.72-7.6,8.65l-10.42,2.6c-3.74,0.93-9.94,1.7-13.79,1.7h-26
					c-3.85,0-10.15,0-14,0h-17c-3.85,0-10.06-0.76-13.79-1.7L604.79,633.7z"/>
				<path class="st8" d="M604.79,633.7c-3.74-0.93-7-4.84-7.26-8.68l-14.06-208.03c-0.26-3.84-2.27-6.98-4.47-6.98s-4.9-2.02-6-4.5
					s-2-7.65-2-11.5l0,0c0-3.85,1.35-8.58,3-10.5s4.8-3.5,7-3.5s7.15,0,11,0h143c3.85,0,8.13,0.9,9.5,2s2.5,5.15,2.5,9v5
					c0,3.85-1.13,8.8-2.5,11s-4.08,4.23-6,4.5s-3.68,3.64-3.91,7.49l-2.18,37.02c-0.23,3.84-0.66,10.13-0.96,13.97l-8.89,112.04
					c-0.3,3.84-0.92,10.11-1.36,13.93l-3.38,29.09c-0.44,3.82-3.86,7.72-7.6,8.65l-10.42,2.6c-3.74,0.93-9.94,1.7-13.79,1.7h-26
					c-3.85,0-10.15,0-14,0h-17c-3.85,0-10.06-0.76-13.79-1.7L604.79,633.7z"/>
			</g>
			<polygon class="st9" points="595,361 727,361 733.78,380 590.08,380 			"/>
			<polygon class="st10" points="587.5,476 730.5,476 723.5,555.5 591.5,555.5 			"/>
			<polyline class="st11" points="578.55,410 735,412 583,410 			"/>
			<polygon class="st12" points="742,411 575,410 571,401 571,387 579,380 742,380 747,384 747,403 			"/>
		</g>
		<rect x="594.98" y="469" class="st13" width="85.02" height="72"/>
		<text transform="matrix(1 0 0 1 617.3789 510.25)"><tspan x="0" y="0" class="st14 st15">wild </tspan><tspan x="-15.51" y="27.6" class="st14 st15">cherries</tspan></text>
		<path d="M685.1,517.72c1.18-7.88,3.8-15.15,7.96-21.86c-0.02-0.02-0.03-0.04-0.05-0.05c-0.07,0.03-0.15,0.05-0.22,0.09
			c-0.77,0.41-1.53,0.82-2.3,1.22c-0.11,0.06-0.22,0.1-0.34,0.15c-0.91,0.33-1.82,0.66-2.72,1c-1.06,0.4-2.16,0.54-3.27,0.66
			c-0.22,0.03-0.44,0.08-0.67,0.09c-0.8,0.05-1.59-0.07-2.34-0.32c-0.83-0.28-1.4-0.86-1.59-1.76c-0.01-0.03,0-0.07,0-0.16
			c0.21,0,0.42,0,0.62,0c0.54,0.01,1.04-0.12,1.52-0.34c0.71-0.32,1.41-0.68,2.11-1.02c0.79-0.38,1.59-0.71,2.45-0.87
			c0.66-0.12,1.31-0.26,1.98-0.3c1.21-0.08,2.41-0.02,3.61,0.18c0.5,0.09,1,0.22,1.5,0.35c0.2,0.05,0.29-0.02,0.39-0.19
			c0.39-0.7,0.79-1.4,1.21-2.09c0.11-0.18,0.3-0.31,0.48-0.44c0.15-0.1,0.3-0.05,0.36,0.12c0.14,0.35,0.22,0.69,0.16,1.09
			c-0.06,0.45-0.03,0.93,0.05,1.38c0.31,1.88,0.86,3.69,1.55,5.46c0.52,1.32,1.1,2.62,1.81,3.85c0.5,0.87,1,1.75,1.58,2.57
			c0.61,0.88,1.29,1.71,1.97,2.54c0.39,0.48,0.84,0.91,1.24,1.38c0.13,0.15,0.24,0.12,0.36,0.04c0.67-0.4,1.34-0.8,2.01-1.2
			c0.71-0.43,1.51-0.58,2.32-0.67c0.3-0.03,0.61-0.12,0.9-0.08c0.76,0.11,1.52,0.24,2.22,0.58c1,0.49,1.76,1.25,2.41,2.15
			c0.66,0.9,1.1,1.89,1.35,2.97c0.33,1.44,0.35,2.89,0.16,4.36c-0.22,1.7-0.72,3.31-1.54,4.81c-0.35,0.64-0.77,1.24-1.32,1.76
			c-0.5,0.47-1.03,0.88-1.61,1.24c-0.91,0.57-1.88,0.97-2.87,1.35c-1.71,0.65-3.45,0.66-5.2,0.37c-0.81-0.13-1.5-0.59-2.19-1.01
			c-0.35-0.21-0.7-0.43-1.02-0.67c-0.42-0.31-0.84-0.62-1.22-0.99c-1.75-1.7-2.9-3.73-3.16-6.21c-0.13-1.24-0.04-2.47,0.45-3.63
			c0.25-0.59,0.6-1.15,0.98-1.66c0.71-0.96,1.66-1.61,2.76-2.09c0.86-0.38,1.74-0.54,2.65-0.64c0.27-0.03,0.53-0.06,0.84-0.09
			c-0.23-0.28-0.43-0.52-0.62-0.76c-0.61-0.76-1.26-1.5-1.83-2.3c-0.93-1.3-1.82-2.64-2.52-4.08c-0.47-0.96-0.95-1.92-1.35-2.91
			c-0.89-2.16-1.58-4.37-1.83-6.71c-0.01-0.09-0.04-0.18-0.07-0.33c-0.26,0.36-0.51,0.66-0.71,0.99c-0.47,0.75-0.94,1.5-1.37,2.27
			c-0.66,1.2-1.29,2.41-1.91,3.62c-0.36,0.69-0.7,1.4-0.99,2.12c-0.59,1.43-1.18,2.87-1.71,4.33c-0.39,1.07-0.72,2.17-1.04,3.26
			c-0.57,1.94-0.95,3.91-1.21,5.91c-0.05,0.39-0.11,0.78-0.17,1.22c0.12,0,0.22-0.01,0.32,0c0.98,0.06,1.98,0.06,2.95,0.21
			c1.05,0.16,1.98,0.69,2.77,1.39c1.45,1.29,2.23,2.92,2.32,4.89c0.07,1.46-0.07,2.88-0.66,4.23c-0.22,0.5-0.45,0.99-0.72,1.46
			c-0.63,1.08-1.4,2.04-2.33,2.88c-0.53,0.48-1.08,0.92-1.68,1.32c-1.51,1.02-3.16,1.32-4.93,1.12c-0.67-0.08-1.34-0.15-1.99-0.31
			c-0.69-0.17-1.37-0.41-2.03-0.66c-0.39-0.15-0.76-0.35-1.12-0.57c-1.17-0.72-2.17-1.62-2.89-2.81c-0.55-0.89-1.02-1.82-1.36-2.81
			c-0.77-2.24-0.95-4.52-0.37-6.83c0.21-0.84,0.6-1.61,1.09-2.33c0.56-0.82,1.22-1.53,2.12-1.97c0.39-0.2,0.8-0.39,1.22-0.51
			c0.72-0.22,1.47-0.39,2.21-0.25c0.82,0.15,1.62,0.38,2.42,0.62c0.4,0.12,0.77,0.36,1.15,0.55
			C684.74,517.49,684.88,517.59,685.1,517.72z M700.35,513.16c-0.73,0.28-1.26,0.72-1.73,1.26c-1.02,1.14-1.36,2.5-1.38,3.98
			c0,0.35,0.03,0.71,0.28,0.99c0.09,0.1,0.24,0.18,0.36,0.18c0.33,0,0.56-0.24,0.6-0.64c0.05-0.52,0.08-1.04,0.08-1.55
			c0-1.34,0.53-2.49,1.28-3.55C699.98,513.62,700.15,513.42,700.35,513.16z M681.37,517.75c-0.11-0.04-0.16-0.06-0.21-0.07
			c-0.14-0.02-0.28-0.04-0.42-0.04c-1.22,0-2.27,0.4-3.15,1.27c-0.49,0.49-0.91,1.01-1.22,1.62c-0.17,0.32-0.31,0.66-0.22,1.03
			c0.03,0.12,0.16,0.26,0.27,0.3c0.35,0.11,0.74-0.05,0.93-0.37c0.13-0.21,0.24-0.43,0.34-0.65c0.44-0.99,1.16-1.73,2.05-2.31
			c0.43-0.27,0.91-0.46,1.37-0.68C681.18,517.83,681.24,517.81,681.37,517.75z"/>
	</g>
	<g>
		<g>
			<path class="st7" d="M111.73,633.2c-3.74-0.93-7-4.84-7.26-8.68L90.41,416.48c-0.26-3.84-2.27-6.98-4.47-6.98
				c-2.2,0-4.9-2.02-6-4.5s-2-7.65-2-11.5l0,0c0-3.85,1.35-8.58,3-10.5s4.8-3.5,7-3.5c2.2,0,7.15,0,11,0h143c3.85,0,8.13,0.9,9.5,2
				s2.5,5.15,2.5,9v5c0,3.85-1.13,8.8-2.5,11s-4.07,4.23-6,4.5s-3.68,3.64-3.91,7.49l-2.18,37.02c-0.23,3.84-0.66,10.13-0.96,13.97
				l-8.89,112.04c-0.3,3.84-0.92,10.11-1.36,13.93l-3.38,29.09c-0.44,3.82-3.86,7.72-7.6,8.65l-10.42,2.6
				c-3.74,0.93-9.94,1.7-13.79,1.7h-26c-3.85,0-10.15,0-14,0h-17c-3.85,0-10.06-0.76-13.79-1.7L111.73,633.2z"/>
			<path class="st8" d="M111.73,633.2c-3.74-0.93-7-4.84-7.26-8.68L90.41,416.48c-0.26-3.84-2.27-6.98-4.47-6.98
				c-2.2,0-4.9-2.02-6-4.5s-2-7.65-2-11.5l0,0c0-3.85,1.35-8.58,3-10.5s4.8-3.5,7-3.5c2.2,0,7.15,0,11,0h143c3.85,0,8.13,0.9,9.5,2
				s2.5,5.15,2.5,9v5c0,3.85-1.13,8.8-2.5,11s-4.07,4.23-6,4.5s-3.68,3.64-3.91,7.49l-2.18,37.02c-0.23,3.84-0.66,10.13-0.96,13.97
				l-8.89,112.04c-0.3,3.84-0.92,10.11-1.36,13.93l-3.38,29.09c-0.44,3.82-3.86,7.72-7.6,8.65l-10.42,2.6
				c-3.74,0.93-9.94,1.7-13.79,1.7h-26c-3.85,0-10.15,0-14,0h-17c-3.85,0-10.06-0.76-13.79-1.7L111.73,633.2z"/>
		</g>
		<polygon class="st16" points="101.94,360.5 233.94,360.5 240.72,379.5 97.03,379.5 		"/>
		<polyline class="st11" points="85.5,409.5 241.94,411.5 89.94,409.5 		"/>
		<polygon class="st17" points="248.94,410.5 81.94,409.5 77.94,400.5 77.94,386.5 85.94,379.5 248.94,379.5 253.94,383.5 
			253.94,402.5 		"/>
	</g>
	<g>
		<path d="M152.7,551c-3.9-2.19-7.4-4.73-9.96-8.14c-6.29-8.41-5.9-17.1-1.3-25.86c1.48-2.83,3.46-5.5,5.53-8.06
			c6.12-7.55,10.87-15.61,12.63-24.77c0.52-2.68,0.49-5.43,0.73-8.15c0.06-0.66,0.22-1.32,0.33-1.97c0.4,0,0.8,0,1.19,0
			c4.62,3.69,8.14,7.99,10.14,13.18c1.62,4.21,2.08,8.54,2.24,12.93c0.08,2.2,0.43,4.41,0.83,6.59c0.17,0.93,0.63,1.88,1.23,2.67
			c0.41,0.55,1.3,1.2,1.94,1.17c0.63-0.03,1.51-0.76,1.76-1.34c0.51-1.21,0.75-2.52,0.95-3.81c0.14-0.9-0.03-1.82,0.06-2.73
			c0.05-0.45,0.38-0.87,0.58-1.3c0.51,0.2,1.14,0.29,1.51,0.6c3.14,2.63,5.14,5.89,6.74,9.34c3.39,7.3,5.25,14.78,3.49,22.66
			c-1.57,7.04-5.89,12.44-13.14,16.07c-0.56,0.28-1.07,0.61-1.61,0.92c-0.13,0-0.27,0-0.4,0c-0.92-0.61-0.64-1.21-0.28-2.05
			c0.9-2.11,1.96-4.26,2.2-6.46c0.7-6.35-2.5-11.68-6.51-16.76c-1.81-2.3-3.54-4.67-4.96-7.16c-1.58-2.78-2.77-5.73-4.16-8.69
			c-0.14,0.17-0.3,0.33-0.4,0.51c-3.91,7.14-7.98,14.21-11.66,21.43c-2.99,5.86-2.52,11.73,1.24,17.35
			c0.33,0.49,0.17,1.21,0.24,1.83C153.49,551,153.1,551,152.7,551z"/>
	</g>
	<rect x="111.53" y="438.75" class="st13" width="103.47" height="25.25"/>
	<text transform="matrix(1 0 0 1 131.6079 454.1797)" class="st18 st19">COFFEEBAR</text>
	<rect x="125.04" y="570.27" class="st13" width="76.96" height="24.73"/>
	<text transform="matrix(1 0 0 1 138.5508 585.709)" class="st18 st19">TRUCKEE</text>
</g>
</svg>
